<svg width="26" height="26" viewBox="0 0 26 26" fill="none" xmlns="http://www.w3.org/2000/svg">
<path d="M7.09882 3.25647C4.96249 3.25647 3.23999 4.97898 3.23999 7.11532V14.5643C3.23999 16.7006 4.96249 18.4231 7.09882 18.4231H7.57332V18.8976C7.57332 21.034 9.29582 22.7565 11.4322 22.7565H18.8812C21.0175 22.7565 22.74 21.034 22.74 18.8976V11.4486C22.74 9.31232 21.0175 7.5898 18.8812 7.5898C18.8216 7.5898 18.5908 7.5898 18.4067 7.5898V7.11532C18.4067 4.97898 16.6842 3.25647 14.5478 3.25647H7.09882ZM7.09882 5.42314H14.5478C15.4871 5.42314 16.24 6.17607 16.24 7.11532V8.67314V14.5643C16.24 15.5035 15.4871 16.2565 14.5478 16.2565H8.65666H7.09882C6.15957 16.2565 5.40666 15.5035 5.40666 14.5643V7.11532C5.40666 6.17607 6.15957 5.42314 7.09882 5.42314Z" fill="url(#paint0_linear_1_760)"/>
<defs>
<linearGradient id="paint0_linear_1_760" x1="20.5834" y1="10.2917" x2="2.63228" y2="14.9558" gradientUnits="userSpaceOnUse">
<stop stop-color="#E759FE"/>
<stop offset="1" stop-color="#359AF8"/>
</linearGradient>
</defs>
</svg>
