<svg width="26" height="24" viewBox="0 0 26 24" fill="none" xmlns="http://www.w3.org/2000/svg">
<path d="M12.8365 0.662339C11.8902 0.669839 10.924 0.923589 10.1802 1.44359L1.039 7.77357C0.317754 8.26982 0.319004 9.30733 1.039 9.80608L4.08649 11.9161L1.039 14.0261C0.320254 14.5223 0.320254 15.5598 1.039 16.0573L10.1802 22.3873C11.6765 23.4048 13.9852 23.4223 15.4927 22.4273L24.9452 16.0973C25.6865 15.6011 25.6865 14.5198 24.9452 14.0261L21.8202 11.9548L24.9452 9.84482C25.684 9.34857 25.6852 8.22984 24.9452 7.73484L15.454 1.40483C14.7077 0.897331 13.7827 0.654839 12.8365 0.662339ZM12.8365 3.16359C13.2877 3.15984 13.7652 3.25734 14.0865 3.47609L21.9765 8.78983L18.8515 10.8998L14.0865 14.1036C13.4252 14.5411 12.2277 14.5398 11.5865 14.1036C11.0202 13.7111 7.55275 11.3011 6.9765 10.8998L3.93024 8.78983L11.6252 3.51483C11.9477 3.28858 12.384 3.16734 12.8365 3.16359Z" fill="url(#paint0_linear_14_138)"/>
<defs>
<linearGradient id="paint0_linear_14_138" x1="23.7211" y1="11.8758" x2="0.498535" y2="11.8758" gradientUnits="userSpaceOnUse">
<stop stop-color="#FF2EE1"/>
<stop offset="1" stop-color="#2E93FF"/>
</linearGradient>
</defs>
</svg>
